<?xml version="1.0" encoding="UTF-8" ?>
<!DOCTYPE svg PUBLIC "-//W3C//DTD SVG 1.1//EN" "http://www.w3.org/Graphics/SVG/1.1/DTD/svg11.dtd">
<svg width="550" height="500" viewBox="0 0 600 500" version="1.1" xmlns="http://www.w3.org/2000/svg">
    <g id="#ff503fff">
        <path fill=""
              d=" M 266.99 2.20 C 273.27 1.07 279.66 0.87 286.03 0.90 C 293.06 0.56 300.34 1.21 306.80 4.20 C 314.19 7.77 320.41 14.09 322.96 21.99 C 326.44 31.53 327.68 43.11 336.57 49.48 C 348.36 57.61 363.32 57.11 377.00 58.03 C 410.28 58.81 442.70 71.72 468.69 92.27 C 500.78 117.60 522.76 154.88 530.71 194.88 C 539.22 236.37 533.88 280.81 514.63 318.65 C 499.71 348.33 476.48 373.87 447.99 391.02 C 421.70 406.91 390.77 415.28 360.02 413.98 C 333.92 413.20 308.08 405.61 285.56 392.44 C 258.52 376.57 236.42 352.73 221.83 325.04 C 205.22 293.65 198.35 257.37 201.45 222.05 C 205.29 173.49 229.90 127.39 266.74 95.78 C 276.42 87.68 286.26 78.81 291.13 66.86 C 293.45 61.34 294.72 54.82 292.13 49.16 C 289.56 43.45 283.04 40.34 276.98 40.51 C 268.41 40.61 260.77 45.18 254.18 50.25 C 242.94 59.13 234.27 70.85 227.37 83.31 C 211.58 112.63 194.60 141.34 175.81 168.85 C 167.27 181.19 158.72 193.58 148.91 204.96 C 136.75 219.06 123.39 232.06 109.97 244.93 C 88.91 264.29 67.08 284.16 40.10 294.81 C 52.53 283.87 64.35 271.67 71.73 256.66 C 84.05 231.45 90.68 204.04 100.61 177.91 C 111.42 148.76 121.16 118.95 136.78 91.91 C 152.69 64.16 175.70 40.32 203.61 24.54 C 223.16 13.35 244.77 5.81 266.99 2.20 M 271.96 130.97 C 247.97 155.66 233.49 188.89 230.01 223.00 C 226.85 253.03 233.28 283.85 247.46 310.44 C 260.70 335.40 281.50 356.39 306.69 369.27 C 330.92 381.59 359.09 386.58 385.97 381.96 C 420.42 376.65 451.99 356.84 473.26 329.47 C 425.65 336.84 375.20 323.57 337.48 293.56 C 312.53 273.66 293.87 246.09 284.46 215.61 C 283.94 214.41 284.92 213.38 285.45 212.41 C 291.75 202.71 299.02 193.46 308.05 186.17 C 310.34 212.06 321.57 236.82 338.42 256.48 C 357.85 279.33 385.25 294.82 414.38 301.39 C 439.17 306.85 465.36 306.00 489.72 298.81 C 491.11 298.35 492.88 298.01 493.22 296.31 C 497.83 284.87 501.39 272.99 503.62 260.86 C 510.97 222.33 502.06 181.22 480.34 148.67 C 463.47 123.50 438.33 103.68 409.35 94.47 C 392.24 88.75 373.92 87.36 356.01 88.94 C 324.12 92.19 294.00 107.85 271.96 130.97 Z"/>
        <path fill=""
              d=" M 432.51 144.72 C 442.00 143.11 452.78 143.99 460.25 150.69 C 473.01 160.89 474.80 181.80 463.99 194.03 C 452.77 207.98 428.99 208.00 417.39 194.55 C 413.34 189.56 410.46 183.47 409.94 177.01 C 408.81 162.89 418.27 147.76 432.51 144.72 Z"/>
    </g>
</svg>
