<?xml version="1.0" encoding="UTF-8" standalone="no"?>
<!DOCTYPE svg PUBLIC "-//W3C//DTD SVG 20010904//EN"
              "http://www.w3.org/TR/2001/REC-SVG-20010904/DTD/svg10.dtd">

<svg xmlns="http://www.w3.org/2000/svg"
     width="10.6667in" height="10.6667in"
     viewBox="0 0 1024 1024">
  <path id="main"
        fill="#000" stroke="none" stroke-width="1"
        d="M 466.00,374.00
           C 442.76,356.41 442.05,332.31 451.87,307.00
             451.87,307.00 461.74,286.00 461.74,286.00
             471.58,265.82 480.87,249.53 488.34,228.00
             492.14,217.07 495.86,205.71 496.00,194.00
             496.08,187.26 497.28,170.11 491.58,165.78
             487.68,162.81 480.60,166.86 477.00,168.86
             465.64,175.18 451.41,186.96 442.00,196.04
             416.17,220.95 396.88,255.32 391.73,291.00
             391.73,291.00 390.00,306.00 390.00,306.00
             389.70,332.33 397.77,364.78 425.00,375.54
             433.80,379.01 438.80,379.10 448.00,379.00
             454.11,378.92 461.25,378.10 466.00,374.00 Z
           M 650.00,176.00
           C 643.82,177.00 642.52,179.74 638.00,183.72
             638.00,183.72 616.00,203.72 616.00,203.72
             616.00,203.72 532.04,275.12 532.04,275.12
             532.04,275.12 514.00,289.12 514.00,289.12
             511.17,291.21 506.65,293.95 505.02,297.04
             504.19,298.62 503.31,309.00 503.60,310.86
             504.10,314.14 507.32,314.38 510.00,315.01
             514.52,316.08 521.84,318.38 526.00,320.32
             541.18,327.40 552.81,340.06 560.00,355.00
             568.13,349.18 581.95,333.85 589.07,326.00
             613.76,298.80 634.81,265.48 645.00,230.00
             649.98,212.67 653.22,193.97 650.00,176.00 Z
           M 499.00,233.00
           C 494.55,238.17 490.91,254.78 488.86,262.00
             484.09,278.84 473.00,319.99 472.09,336.00
             471.69,343.01 473.37,352.49 480.00,356.00
             480.00,356.00 493.08,283.00 493.08,283.00
             495.54,268.11 499.00,247.76 499.00,233.00 Z
           M 554.00,391.00
           C 554.00,391.00 546.67,382.00 546.67,382.00
             539.60,373.10 534.59,365.59 522.00,365.13
             512.87,364.80 502.56,369.69 494.00,372.00
             496.47,376.42 500.94,378.82 505.00,381.71
             518.42,391.27 525.60,393.74 542.00,392.17
             542.00,392.17 554.00,391.00 554.00,391.00 Z
           M 571.00,381.00
           C 568.91,389.74 584.02,398.01 591.00,400.00
             583.90,408.15 591.19,418.64 598.00,417.24
             604.78,415.85 609.00,405.58 606.01,401.72
             604.50,399.78 589.83,396.14 587.00,396.00
             587.00,396.00 571.00,381.00 571.00,381.00 Z
           M 415.00,386.00
           C 415.00,386.00 412.00,386.00 412.00,386.00
             412.00,386.00 400.26,409.00 400.26,409.00
             400.26,409.00 389.34,436.00 389.34,436.00
             373.14,482.68 370.42,535.18 387.44,582.00
             393.46,598.56 401.58,614.34 411.35,629.00
             411.35,629.00 424.93,647.00 424.93,647.00
             426.85,650.51 428.60,657.94 429.74,662.00
             429.74,662.00 438.87,698.00 438.87,698.00
             439.80,701.72 441.94,715.14 444.51,716.98
             446.37,718.30 450.64,717.94 453.00,718.17
             453.00,718.17 475.00,721.00 475.00,721.00
             475.00,682.83 473.95,651.67 483.88,614.00
             488.90,594.98 496.04,576.20 503.45,558.00
             503.45,558.00 517.08,523.00 517.08,523.00
             518.58,517.52 520.42,509.60 519.83,504.00
             519.83,504.00 516.12,486.31 516.12,486.31
             515.72,477.00 515.31,465.25 522.00,457.00
             515.81,457.05 511.54,461.49 506.91,465.16
             498.25,472.01 484.28,486.11 477.73,495.00
             461.48,517.07 450.89,536.93 445.45,564.00
             441.49,583.67 441.97,598.32 442.00,618.00
             442.02,633.19 449.90,657.42 450.19,664.08
             450.19,664.08 436.40,642.00 436.40,642.00
             428.83,629.46 423.04,617.23 419.38,603.00
             417.63,596.21 414.72,576.54 415.18,570.00
             418.63,521.50 442.79,478.75 486.00,454.66
             501.35,446.11 522.74,438.95 540.00,435.45
             547.67,433.89 570.51,429.72 576.00,426.00
             569.52,424.16 552.62,425.00 545.00,425.00
             545.00,425.00 498.00,425.00 498.00,425.00
             476.59,425.00 464.12,426.86 444.00,417.30
             436.10,413.54 429.98,408.93 424.52,402.00
             420.67,397.12 417.47,391.69 415.00,386.00 Z
           M 546.99,546.00
           C 546.94,550.22 546.79,552.09 546.99,556.00
             546.99,556.00 546.99,571.00 546.99,571.00
             546.71,595.35 529.68,620.12 521.43,643.00
             516.22,657.48 512.07,684.58 512.00,700.00
             512.00,700.00 511.00,718.00 511.00,718.00
             510.97,721.00 510.53,729.33 512.02,731.59
             513.55,733.90 519.34,735.74 522.00,736.80
             522.00,736.80 549.00,747.00 549.00,747.00
             546.12,740.61 541.14,736.66 535.63,723.00
             525.87,698.85 525.01,671.43 534.05,647.00
             543.12,622.51 570.31,597.18 598.00,608.45
             603.10,610.53 605.83,612.48 610.00,616.00
             600.06,614.69 594.96,614.42 585.00,616.66
             556.75,623.03 544.48,647.49 541.83,674.00
             541.42,678.12 541.56,679.78 541.38,684.29
             542.21,705.84 549.08,727.24 564.09,743.01
             566.76,745.82 569.76,748.92 573.00,751.04
             583.55,757.91 595.65,760.14 608.00,760.00
             614.26,759.92 621.04,758.57 627.00,756.66
             632.67,754.84 638.10,752.27 642.96,748.78
             666.28,732.02 665.96,699.08 659.87,674.00
             653.97,649.73 644.99,629.78 629.49,610.00
             610.67,585.97 586.79,570.08 561.00,554.60
             561.00,554.60 546.99,546.00 546.99,546.00 Z
           M 321.00,874.00
           C 325.81,861.15 327.86,852.88 336.44,841.28
             350.72,821.97 377.21,810.04 401.00,810.00
             401.00,810.00 414.00,810.00 414.00,810.00
             445.30,810.05 486.04,831.76 515.00,843.55
             566.61,864.56 625.61,874.38 676.00,844.40
             692.25,834.73 706.34,820.60 715.49,804.00
             726.48,784.05 727.10,767.93 727.00,746.00
             726.91,725.99 716.79,702.92 705.12,687.00
             698.23,677.61 681.91,659.62 671.00,656.00
             672.85,667.83 679.06,674.95 681.17,696.00
             681.68,701.10 682.35,703.59 681.83,709.00
             679.10,737.55 665.24,758.17 639.00,770.23
             630.43,774.17 620.48,776.89 611.00,777.00
             611.00,777.00 601.00,777.00 601.00,777.00
             577.66,776.96 545.84,764.27 524.00,755.81
             498.20,745.81 474.87,737.95 447.00,735.91
             447.00,735.91 437.00,735.00 437.00,735.00
             427.04,734.89 407.40,735.66 398.00,737.67
             362.86,745.17 328.11,769.04 316.08,804.00
             311.38,817.64 310.98,826.88 311.00,841.00
             311.02,850.63 313.63,867.32 321.00,874.00 Z" />
</svg>
