<?xml version="1.0" encoding="UTF-8" standalone="no"?>
<!DOCTYPE svg PUBLIC "-//W3C//DTD SVG 20010904//EN"
              "http://www.w3.org/TR/2001/REC-SVG-20010904/DTD/svg10.dtd">

<svg xmlns="http://www.w3.org/2000/svg"
     width="14.2222in" height="14.2222in"
     viewBox="0 0 1024 1024">
  <path id="primary"
        fill="black" stroke="black" stroke-width="1" stroke-linecap="square"
        d="M 234.91,697.00
           C 235.73,694.45 237.94,684.14 249.00,679.36
             256.98,675.92 260.09,681.28 268.33,671.00
             276.74,660.51 283.33,648.70 289.86,637.00
             301.68,615.83 315.71,587.71 316.00,563.00
             316.07,557.03 316.55,536.48 315.20,532.00
             313.73,527.08 302.16,509.93 298.60,504.00
             295.11,498.19 284.51,483.10 278.96,480.17
             275.96,478.59 261.33,477.29 257.00,476.72
             241.51,474.68 227.06,473.11 213.00,465.74
             206.48,462.32 195.30,452.47 197.33,444.06
             198.45,439.40 202.71,440.18 209.00,437.91
             215.42,435.60 220.91,431.54 223.44,425.00
             226.29,417.62 225.77,411.64 232.49,399.00
             232.49,399.00 244.44,380.00 244.44,380.00
             244.44,380.00 246.09,368.00 246.09,368.00
             246.09,368.00 251.34,349.00 251.34,349.00
             259.37,323.85 272.88,302.40 290.83,283.09
             302.86,270.15 313.68,261.52 330.00,254.42
             333.63,252.85 340.25,249.83 343.98,249.34
             350.57,248.47 351.42,254.96 352.86,260.00
             356.03,271.05 358.90,287.55 359.00,299.00
             381.40,281.11 399.33,271.21 426.00,261.19
             431.95,258.96 437.78,257.43 444.00,256.13
             446.03,255.80 449.60,254.80 451.42,256.13
             453.21,257.31 454.12,262.84 454.55,265.00
             455.85,271.48 457.92,285.63 458.00,292.00
             458.20,309.48 454.96,328.99 447.69,345.00
             443.57,354.07 441.81,356.58 440.22,359.50
             438.77,362.16 437.92,362.86 434.77,368.00
             432.00,372.52 415.95,391.21 412.00,394.91
             408.59,398.10 405.74,400.05 402.00,402.71
             393.69,408.63 380.07,417.42 370.00,419.00
             370.81,426.67 374.73,431.64 380.01,437.00
             396.89,454.11 420.21,454.29 442.00,448.14
             465.32,441.56 492.82,430.60 517.00,430.56
             517.00,430.56 528.19,430.38 528.19,430.38
             537.36,430.39 546.15,433.07 555.00,435.38
             558.46,436.28 564.09,438.34 566.62,439.03
             566.62,439.03 583.00,435.59 583.00,435.59
             590.61,434.39 606.43,432.92 614.00,433.00
             614.00,433.00 624.00,433.91 624.00,433.91
             662.97,436.64 697.01,448.28 728.00,472.42
             742.83,483.98 756.61,497.28 767.11,513.00
             780.60,533.18 783.06,548.04 803.51,568.12
             818.02,582.35 830.26,585.50 848.12,592.38
             844.61,599.73 835.85,602.27 828.81,605.50
             808.46,614.85 797.77,615.25 776.00,615.00
             768.08,614.90 757.67,612.58 750.00,610.42
             712.45,599.82 688.03,578.62 666.04,547.00
             651.21,525.69 642.09,503.38 621.78,485.67
             621.78,485.67 627.48,502.78 627.48,502.78
             627.48,502.78 633.26,522.48 633.26,522.48
             638.45,541.67 638.89,554.98 650.91,572.00
             656.54,579.97 663.76,587.58 672.00,592.90
             677.11,596.20 683.87,597.74 687.17,599.61
             689.83,612.90 697.00,626.75 697.00,626.75
             704.10,644.37 708.98,655.37 714.00,673.75
             715.00,677.42 715.28,692.81 715.00,696.50
             707.70,696.62 667.50,697.38 667.50,697.38
             668.50,691.88 670.75,678.31 689.00,678.00
             686.80,670.48 681.52,664.56 677.42,658.00
             666.51,640.51 660.89,627.75 641.00,617.81
             632.09,613.35 622.30,611.62 613.00,608.31
             597.66,602.85 574.92,591.85 563.00,581.00
             564.60,600.09 580.97,618.78 597.00,628.00
             594.87,636.71 589.96,638.91 586.19,645.09
             586.19,645.09 570.66,671.00 570.66,671.00
             565.54,678.87 559.15,687.16 556.00,696.00
             543.91,696.09 507.36,696.27 507.36,696.27
             511.55,688.82 514.55,682.27 523.00,680.53
             527.38,679.47 535.02,680.94 537.90,679.23
             540.57,677.64 543.02,672.75 544.58,670.00
             544.58,670.00 554.86,650.00 554.86,650.00
             556.16,647.05 558.24,643.27 558.15,640.00
             558.01,635.40 554.04,631.09 550.98,628.01
             542.96,619.95 534.13,616.13 525.00,609.57
             510.59,599.23 497.79,584.31 490.51,568.00
             490.51,568.00 486.00,555.00 486.00,555.00
             486.00,555.00 456.00,571.00 456.00,571.00
             462.58,586.51 474.61,621.55 479.42,638.00
             482.84,649.66 487.62,663.91 488.83,676.00
             489.89,686.55 486.09,685.81 486.00,696.18
             486.00,696.18 436.55,696.55 436.55,696.55
             439.73,688.91 443.71,677.37 460.00,677.00
             453.72,653.74 431.02,623.38 413.00,607.87
             413.00,607.87 399.00,596.86 399.00,596.86
             396.77,595.28 393.91,592.85 391.00,593.27
             388.69,593.60 384.11,597.21 382.00,598.66
             373.12,604.77 368.89,608.79 361.00,615.84
             343.23,631.70 328.62,648.33 312.84,666.00
             312.84,666.00 297.46,683.00 297.46,683.00
             297.46,683.00 287.09,696.91 287.09,696.91
             287.09,696.91 234.91,697.00 234.91,697.00 Z
           M 336.00,267.00
           C 325.62,268.11 313.21,279.82 306.00,287.00
             287.91,305.00 278.54,317.04 269.58,341.00
             266.72,348.63 264.67,355.93 263.52,364.04
             271.59,358.34 289.04,348.48 306.00,347.00
             305.40,322.03 308.55,309.63 321.45,288.00
             321.45,288.00 336.00,267.00 336.00,267.00 Z
           M 350.00,425.00
           C 341.27,427.52 320.32,429.16 311.91,425.13
             311.87,420.04 312.13,416.13 312.17,413.13
             315.04,413.09 324.81,413.91 328.00,413.79
             333.06,414.10 334.31,413.67 339.00,413.16
             346.08,412.41 353.12,411.52 360.00,409.57
             380.02,403.90 400.03,388.94 414.09,374.00
             420.20,367.51 423.10,364.81 427.94,357.00
             436.74,342.79 444.96,314.81 445.91,298.00
             446.15,293.68 443.96,277.52 441.15,274.60
             439.56,272.95 437.12,272.99 435.00,273.18
             427.37,273.86 412.17,281.16 405.00,284.75
             376.18,299.20 348.58,322.09 328.31,347.00
             320.77,356.27 314.09,365.50 308.31,376.00
             306.29,379.67 303.57,384.96 300.78,389.87
             293.43,389.74 292.48,388.43 289.96,387.48
             290.69,380.04 296.09,370.43 301.00,362.00
             283.52,368.06 269.61,375.03 256.04,387.93
             253.32,390.50 249.59,394.18 247.61,397.34
             246.33,399.39 245.82,401.80 244.95,404.04
             244.95,404.04 241.03,414.00 241.03,414.00
             241.03,414.00 237.29,427.00 237.29,427.00
             233.43,437.34 226.03,445.74 215.00,448.00
             220.85,460.09 241.11,460.73 253.00,462.15
             284.03,465.87 314.68,472.52 338.83,446.00
             344.46,439.81 349.52,433.60 350.00,425.00 Z
           M 365.28,328.91
           C 367.81,321.50 376.98,315.39 383.00,310.87
             383.00,310.87 410.00,292.94 410.00,292.94
             417.65,288.26 425.84,283.45 435.00,283.00
             436.62,290.50 436.27,301.18 436.27,301.18
             434.23,329.10 424.93,349.06 405.00,369.00
             401.16,372.84 397.46,376.81 393.00,379.96
             378.81,389.98 359.32,398.58 342.00,400.71
             342.31,400.72 335.32,401.23 328.39,401.22
             322.72,401.30 311.17,399.96 311.17,399.96
             306.53,398.50 306.53,396.50 309.87,393.70
             309.87,393.70 314.00,391.07 314.00,391.07
             314.00,391.07 319.00,388.44 319.00,388.44
             332.48,382.44 335.67,381.21 349.55,377.55
             357.14,375.54 363.68,373.38 372.00,373.00
             362.82,363.96 348.53,370.81 337.00,369.00
             339.43,365.21 343.25,364.30 347.00,361.91
             363.17,351.62 373.03,350.00 392.00,350.00
             382.08,340.19 364.29,346.96 352.00,347.00
             359.11,338.41 378.13,330.09 389.00,327.16
             389.00,327.16 401.76,324.22 401.76,324.22
             401.76,324.22 394.25,317.31 365.28,328.91 Z
           M 246.00,437.00
           C 246.49,433.82 247.15,430.95 248.52,428.00
             255.97,411.91 273.19,416.17 287.00,418.00
             284.25,422.91 281.05,423.49 277.04,427.18
             272.80,431.08 270.09,436.67 264.00,437.77
             257.91,438.88 252.08,436.46 246.00,437.00 Z
           M 697.00,664.00
           C 692.51,648.64 688.12,637.46 681.26,623.00
             679.35,618.97 678.22,613.27 675.58,610.18
             675.58,610.18 658.00,597.33 658.00,597.33
             649.22,590.36 640.36,580.65 634.60,571.00
             620.67,547.62 622.10,527.49 613.77,505.00
             609.75,494.15 604.65,483.67 596.83,475.00
             580.64,457.09 548.98,445.04 525.00,445.00
             508.11,444.97 494.27,446.87 478.00,451.72
             460.63,456.90 437.80,465.79 420.00,466.00
             403.70,466.19 394.52,465.32 380.64,456.18
             380.64,456.18 370.73,449.45 361.06,439.66
             354.15,456.84 334.00,475.18 302.00,480.00
             302.00,480.00 310.75,497.00 310.75,497.00
             320.97,517.29 333.81,537.06 352.00,551.11
             361.61,558.54 373.27,566.56 384.00,572.22
             384.00,572.22 403.00,581.93 403.00,581.93
             408.14,585.04 422.23,596.10 427.00,600.29
             441.58,613.08 458.11,639.59 467.36,657.00
             467.36,657.00 476.00,675.00 476.00,675.00
             475.75,663.72 468.19,645.88 464.06,635.00
             464.06,635.00 449.31,593.00 449.31,593.00
             449.31,593.00 438.00,562.00 438.00,562.00
             433.42,548.56 427.04,534.37 427.00,520.00
             427.00,520.00 438.91,516.55 438.91,516.55
             438.91,516.55 447.71,542.75 452.00,559.00
             460.34,553.21 463.41,548.22 472.82,543.55
             479.21,540.37 491.11,536.08 498.18,534.36
             505.62,532.56 515.52,530.53 523.09,532.36
             523.09,532.36 519.17,514.00 519.17,514.00
             518.23,504.41 520.77,492.30 532.00,491.00
             532.00,503.84 531.63,513.44 535.75,526.00
             545.08,554.48 573.60,575.83 600.19,587.62
             616.51,594.87 645.13,602.34 658.00,611.59
             670.25,620.41 679.11,634.32 686.94,647.00
             689.76,651.58 693.15,661.13 697.00,664.00 Z
           M 726.36,585.09
           C 729.24,551.50 752.00,531.27 759.91,523.82
             759.19,521.55 753.20,515.05 751.42,513.00
             745.84,506.56 733.51,494.07 727.00,488.80
             697.86,465.24 661.69,449.66 624.00,447.96
             624.00,447.96 596.34,447.91 590.00,450.00
             595.91,459.00 595.36,451.36 611.55,457.91
             621.21,462.60 630.28,470.77 637.82,478.36
             661.23,501.94 672.76,536.02 695.91,561.00
             703.42,569.10 716.36,580.64 726.36,585.09 Z
           M 622.00,486.00 622.00,486.00 622.00,486.00 622.00,486.00
           M 331.00,550.00
           C 329.73,553.21 329.41,569.33 329.09,573.82
             328.76,578.54 325.95,588.21 324.57,593.00
             319.05,612.27 306.68,634.74 296.45,652.00
             296.45,652.00 278.24,682.00 278.24,682.00
             275.86,685.14 273.53,687.64 269.42,688.11
             264.01,688.73 256.84,686.05 253.00,691.00
             253.00,691.00 265.00,691.00 265.00,691.00
             278.58,690.83 282.53,681.47 290.55,672.00
             290.55,672.00 308.73,650.73 308.73,650.73
             308.73,650.73 330.91,624.36 330.91,624.36
             330.91,624.36 345.64,609.45 345.64,609.45
             355.50,600.99 364.41,595.63 362.91,580.91
             361.95,571.57 353.78,571.21 347.27,566.09
             347.27,566.09 331.00,550.00 331.00,550.00 Z
           M 475.00,685.00
           C 475.00,685.00 455.00,689.00 455.00,689.00
             455.00,689.00 455.00,691.00 455.00,691.00
             455.00,691.00 456.00,692.00 456.00,692.00
             468.59,689.74 473.08,693.50 475.00,685.00 Z" />
  <path id="secondary"
        fill="black" stroke="black" stroke-width="1" stroke-linecap="square"
        d="M 293.44,318.56
           C 297.02,312.79 331.62,274.50 331.62,274.50
             309.44,304.31 306.00,322.77 306.81,347.62
             289.60,349.58 277.44,356.50 277.44,356.50
             285.31,333.12 289.37,325.11 293.44,318.56 Z
           M 333.17,427.48
           C 339.83,427.26 343.38,425.70 350.69,424.44
             350.43,426.13 348.37,433.43 341.06,443.56
             333.41,453.38 322.19,464.75 294.25,466.50
             288.29,466.76 281.06,465.52 268.13,464.09
             320.25,453.44 327.39,434.96 333.17,427.48 Z
           M 361.00,438.69
           C 379.64,457.32 394.18,465.82 415.81,466.00
             349.09,471.09 330.38,484.97 313.38,503.06
             313.38,503.06 300.88,479.44 300.88,479.44
             330.97,475.80 352.64,456.23 361.00,438.69 Z
           M 612.48,458.52
           C 620.32,459.81 635.64,466.82 647.45,474.09
             683.09,504.91 679.55,512.64 695.91,535.36
             713.00,557.55 724.12,562.12 730.88,564.94
             729.12,569.62 727.56,576.31 726.50,585.25
             685.38,563.50 672.45,524.18 648.36,491.00
             648.36,491.00 635.01,471.45 612.48,458.52 Z
           M 581.39,462.22
           C 598.75,472.40 607.05,489.26 609.39,494.09
             614.75,505.15 617.79,516.03 620.17,527.96
             625.50,554.60 630.82,571.05 650.61,590.61
             655.33,595.28 660.91,599.67 666.44,603.38
             672.29,607.30 675.91,608.91 679.00,616.18
             678.87,615.72 695.06,652.69 697.81,665.94
             692.18,658.12 676.88,631.88 676.88,631.88
             676.88,631.88 666.04,617.31 658.75,612.25
             648.97,605.46 643.67,602.57 637.02,596.70
             632.79,592.97 621.35,577.96 621.35,577.96
             612.06,564.54 607.45,547.82 603.73,527.00
             600.91,508.00 597.30,485.67 581.39,462.22 Z
           M 519.19,511.00
           C 519.12,516.69 523.08,532.78 523.06,532.56
             502.81,528.81 467.69,541.94 452.44,559.56
             452.44,559.56 446.19,538.88 446.19,538.88
             460.00,526.94 477.06,510.00 519.19,511.00 Z
           M 428.30,531.39
           C 436.03,559.57 479.04,664.57 476.61,676.39
             476.61,676.39 456.04,626.70 456.04,626.70
             456.04,626.70 437.11,584.81 435.20,580.00
             426.36,557.27 433.46,548.35 428.30,531.39 Z
           M 346.17,564.70
           C 350.99,568.70 359.77,572.05 361.43,574.61
             363.03,577.64 363.80,583.24 363.30,586.48
             363.24,588.81 362.62,591.17 361.91,593.44
             360.56,599.94 342.61,609.39 304.09,656.36
             304.09,656.36 327.75,618.62 327.75,618.62
             345.00,590.31 346.17,564.70 346.17,564.70 Z" />
</svg>
