<svg width="30" height="30" viewBox="0 0 28 30" xmlns="http://www.w3.org/2000/svg">
<path fill-rule='nonzero' d="M11.1958 18.3315C4.47666 13.0888 13.0305 2.77841 22.026 8.75776C27.9733 12.7108 28.0119 21.942 21.9912 26.4362C15.3432 31.3989 4.31512 29.2028 0.6817 22.163C0.611813 22.0271 0.655009 21.8636 0.783545 21.7788C0.913251 21.6927 1.08592 21.7173 1.18589 21.8357C5.41914 26.8458 14.2942 28.5571 19.4439 23.6781C23.7549 19.5936 22.9541 12.7878 16.6206 11.1827C16.4818 11.1474 16.3411 11.2097 16.2753 11.3351C16.209 11.4613 16.2405 11.6116 16.3515 11.7024C23.512 17.5722 14.2195 26.981 5.7207 21.3319C-0.226596 17.3788 -0.26511 8.14784 5.75558 3.65372C12.4036 -1.3092 23.4316 0.886914 27.065 7.92664C27.1349 8.06257 27.0917 8.22607 26.9632 8.31088C26.8335 8.39695 26.6608 8.37238 26.5608 8.25399C22.3276 3.24388 13.4525 1.53261 8.30277 6.41153C4.03768 10.4525 4.77623 17.1575 10.9259 18.854C11.0661 18.8927 11.2107 18.8305 11.2776 18.7031C11.3451 18.5746 11.3109 18.421 11.1958 18.3315Z" fill=""/>
</svg>
