<?xml version="1.0" encoding="utf-8"?>
<!-- Generator: Adobe Illustrator 23.0.4, SVG Export Plug-In . SVG Version: 6.00 Build 0)  -->
<svg xmlns="http://www.w3.org/2000/svg" xmlns:xlink="http://www.w3.org/1999/xlink" version="1.2" baseProfile="tiny" id="svg8" x="0px" y="0px" viewBox="0 0 483.8 333.7" xml:space="preserve">
<g id="layer1">
	<path id="path1291" fill-rule="evenodd" fill="#000000" stroke="" stroke-miterlimit="10" d="M171.5,165.5   c-0.9-4.1-2-6.4-5.4-8.7c-4.4-2.9-11.2-4.8-19.6-6.1c-0.9-0.7-2.4-1.5-3.7-2.1c4.5-4.1,9.1-8.2,12.7-13c-1.5,0.1-2.6,0.5-3.7,0.8   c2.5-3.9,4.9-7.8,6.9-11.7c-1.6,0-3.4,0.7-5.1,1.6c1-1.7,2.3-2.9,4.1-3.6c1.7-0.6,3.8-0.7,6.2-0.3c-0.9-2.1-1.8-4.5-3.6-6.5   c-1.3-1.5-3.4-2.6-4.9-4.3c-1.2-1.5-1.8-3.8-3-5.3c0.5-1.5,0.2-2.9-0.5-4.4c6.6-16.2,10.3-31.5,11.6-46.2   c0.5-5.4-0.3-11.1-0.4-16.3c-0.2-5.8,0.3-11.6-0.4-17.1c-0.6-4.7-3.4-9.5-3.6-13.9c0.5-8.4-2.4-10.4-9.3-4.6   c-9.8,7.3-18.1,15.5-25.2,24.4c-3.9,4.9-6.4,10.2-9.8,15.3c-2.8,4.3-6.3,8.2-9,12.6c-2.6,4.2-4.5,8.9-6.4,13.4   c-0.5-0.1-1-0.2-1.4,0.1c0.7-2.2,1-4.3,0.4-6.5c-1.5,0.1-2.7,0.9-3.7,2.4c0.1-0.4,0.1-0.8,0-1.3c-2.9,0.3-4.5,1.9-5.3,4.1   C74,57.5,58.2,46.8,41.4,36.9c-4.4-2.6-9.3-4.6-13.7-7.1c-3.7-2.1-6.5-4.8-10.2-6.8c-4.5-2.3-8.8-1.9-11.3-0.9   c-2.5,1-1.2,3.4-3.6,7.2c-4.8,16.8-0.9,34.4,6.7,50.4c5.4,11.3,13.3,22.9,27.5,32.2c5.5,9.7,11.8,19.4,8.9,29.2   c1.8,0.1,3.5,0.4,5,1.1c1.8,0.7,1.3,1.8,4.8,3c-4.9,0.8-4.4,2.7,3.8,6.2c-5.4,1.3-4,3.1-0.1,4.4c1.9,0.6,4.5,0.7,7,1.3   c-0.6,0.1-0.9,0.4-0.9,0.9c1.5,0.6,2.6,1.1,3.3,1.6c-2.2,2.2-4.8,3.7-8.1,4.5c2.6,1.4,5.4,1.2,8.4,0.4c-3.6,4.6-8.8,7-11.3,10.8   c-1.5,2.3-2.4,4.7-2.4,7.2c2-0.7,4-1.6,5.2-3.1c-1.1,5.7-2,11.1-1.9,15.1c0.1,2.6-0.4,5.9,2,5.5c0.9,3.9,1.7,6.3,2.3,7.6   c0.8,1.7,1.8,1.9,2.1-0.1c0.2-1-0.5-3.1-0.1-4.8c0.3,1.1,0.4,2.1,1.9,3.7c0.4,4.3,1,8.7,1.7,13.1c1.2,8.2,4.5,15,4.4,24.7   c-9.1,0.1-18,2.2-25.1,5.3c-5,2.1-9.6,2.3-12.4,9.1c-3.3,8.7-8,19.6-9.7,26.8c-1.1,4.7-0.7,8.7,2.4,7.7c0.6,2.7,1.7,4.6,3.5,5.4   c2.4,1.7,4.6,2.3,6.6,2c2.3-0.4,4.8-1.5,6.7-4.1c5.6-1.7,9.6-4.4,11.6-8.1c1.8-3.3,4.5-8.7,0.6-12.1c0.6-1.8,0.8-3.7,0.5-5.7   c4.7-1.4,9.4-2.4,14.1-3.7c4.8-1.2,9.5-2.7,14.4-3.7c7.1-1.5,14.3-2.6,21.7-3.4c-0.2,1.1-0.3,2.1-0.5,3.2   c-6.1,4.8-10,9.8-12.2,14.9c-2.8,6.5-2.8,13.2-1.1,20.1c-2.4,5.1-5.7,9.1-9.6,12.2c-5,4-9.5,2-17.7,8.8c-2,2.3-3.5,4.3-4.2,6.1   c-1.4,3.5,0.7,7.2,6.7,7c4.3,0.7,8.7,0.7,13.1-0.2c10.4-1.1,13.9,1.8,18.8-1.7c3.4-2.3,4.9-6.8,7.5-12.8c2.1,0,4-0.4,5.5-1.3   c1.9,1.5,4.9,2.4,9.1,2.7c-2.5,4.4-3.3,7.6-2.2,9.5c1,1.8,3.1,4.4,8,1.9c4.8,5.7,11.8,2.1,18.2,2.4c6.6,0.3,12.9-1,16-3   c8,1.2,14.1,1.8,22.3,1.1c9.6-0.8,17.6,1.1,27.1-0.4c8.4-1.4,18.5-4.6,26.5-7c1.5,1,3.4,1.4,5.8,1.7c5.3,0.6,11,0.1,16.5,0.5   c6.3,0.5,12.6,1.8,18.8,2.3c28.9,2.2,58.8,2.7,87,2.1c15.5-0.3,30.5-3.7,45.9-3.9c12.9-0.2,26.2-0.6,39.1-6.2   c5.3-2.3,9.4-6.6,14.5-11.1c5.1-4.5,11.2-9.2,15.9-16.5c-12-1.8-19-3.6-24-5.6c-6.9-2.7-10-5.8-16.9-9.7   c-7.8-4.3-13.8-9.8-20.8-14.9c-6.6-4.8-14.7-9.2-22.2-12.8c-3.7-1.8-6.5-3.6-10.4-4.8c-23.1-7.4-47.6-17.2-69.9-10.7   c4.6-6.2,9.5-12.1,14.6-17.6c-12.1-0.8-23.6,1.4-34.1,7.9c-6.9,4.3-11.9,11-19.3,18.8c3-4.9,3.7-10.3,2.5-16.1   c-13.4,7.8-19.8,17.9-22.2,29.2c-3.5-21.7-16.2-43.2-31.4-58.5c-2.2-2.2-5.3-4.3-7.8-6.5c-6.4-5.5-12.9-10.6-20.6-14.6   c-5.4-2.8-12.1-4.4-18-6.4C178.6,168.3,175.7,166.6,171.5,165.5L171.5,165.5z"/>
</g>
</svg>
